<?xml version="1.0" encoding="UTF-8"?>
<svg version="1.1" xmlns="http://www.w3.org/2000/svg" width="2500" height="2500">
<path d="M0 0 C7.25260001 6.2352214 14.03354481 12.94594897 20.8125 19.6875 C21.51785889 20.38810547 22.22321777 21.08871094 22.94995117 21.81054688 C26.90028344 25.7734613 30.66882306 29.83651329 34.32299805 34.07348633 C36.97394089 37.1188481 39.73867058 40.05502614 42.5 43 C47.55108997 48.4175458 52.49600149 53.8978217 57.30712891 59.53027344 C58.82934067 61.31220146 60.35206974 63.09368601 61.875 64.875 C62.39497559 65.48384033 62.91495117 66.09268066 63.45068359 66.7199707 C66.47944776 70.25700261 69.55179463 73.74426485 72.6875 77.1875 C76.44515305 81.32831267 79.97765938 85.61643593 83.49609375 89.9609375 C87.45738679 94.76887196 91.5617143 99.45059592 95.65234375 104.1484375 C98.39367857 107.29710645 101.11731499 110.46034157 103.83105469 113.6328125 C104.85245537 114.82670779 105.87522164 116.01943626 106.89941406 117.2109375 C108.9269874 119.56990207 110.94396375 121.93175218 112.91796875 124.3359375 C117.64415298 130.01633945 123.15345532 134.50516342 129 139 C129.78117187 139.6084375 130.56234375 140.216875 131.3671875 140.84375 C154.19149182 157.75064209 182.28517925 162.97841096 210.125 159 C217.59642044 157.72467623 224.76403952 155.6975854 231.9921875 153.44140625 C233.68710327 152.91553673 233.68710327 152.91553673 235.41625977 152.37904358 C247.71404573 148.5232081 259.85910505 144.2571198 272 139.9375 C274.3559479 139.10449416 276.7120708 138.27198312 279.06835938 137.43994141 C289.98644738 133.57998872 300.89233204 129.68758023 311.78125 125.74609375 C377.66161416 101.91507987 377.66161416 101.91507987 404 101 C405.08023437 100.96003906 406.16046875 100.92007813 407.2734375 100.87890625 C429.33713132 100.46490758 449.41691006 105.93809181 465.75 121.125 C473.97882042 129.99383979 479.91401067 140.08254833 484.75 151.125 C485.26046875 152.27500488 485.26046875 152.27500488 485.78125 153.44824219 C491.88057654 168.06903167 495.46773936 183.70598869 498.12875366 199.27526855 C498.58512344 201.94483749 499.05544635 204.61167052 499.52856445 207.27832031 C500.26291587 211.42319352 500.99181347 215.56898116 501.71777344 219.71533203 C503.90322419 232.16554876 506.14830812 244.6051915 508.39059734 257.04527378 C509.24271659 261.77400895 510.09079459 266.50344424 510.93558025 271.23349476 C513.39902027 285.01781913 515.87642584 298.79779818 518.69140625 312.515625 C518.8783757 313.43901672 519.06534515 314.36240845 519.25798035 315.31378174 C524.81153464 341.76003751 537.50085907 367.01354065 560.5078125 382.4140625 C580.23100081 395.00637934 602.22787697 399.03796311 624.92578125 403.046875 C627.04201967 403.42503402 629.15816238 403.80372896 631.2742157 404.18292236 C636.8314478 405.17751352 642.38977633 406.16582797 647.94842529 407.15246582 C673.3393964 411.66246468 698.73126454 416.17356236 724.09377098 420.84137726 C725.91066039 421.17513399 727.72787072 421.50714959 729.54543495 421.83721161 C743.32634155 424.34276264 756.7468781 427.37995496 770 432 C770.71349609 432.24427734 771.42699219 432.48855469 772.16210938 432.74023438 C793.21012145 440.09193237 811.49883145 451.69899404 822.1875 471.75 C839.75452214 508.58556214 821.31399093 552.40378405 809 588 C808.31630277 589.98043303 807.63271282 591.9609031 806.94921875 593.94140625 C803.95388442 602.61655335 800.95272395 611.28967054 797.94335938 619.95996094 C793.02000383 634.1455445 788.12266577 648.33961115 783.2767334 662.55184937 C782.60572455 664.51942267 781.93396299 666.48673949 781.26135254 668.45376587 C777.96263912 678.10389788 774.71526815 687.76661327 771.6328125 697.48828125 C771.38597717 698.26498672 771.13914185 699.0416922 770.88482666 699.8419342 C764.30990286 720.77521631 765.69128405 740.84715731 775.73339844 760.34301758 C783.39960426 774.41339489 795.78311201 785.84204158 808.21875 795.72265625 C811.25579154 798.20944728 814.12963031 800.82513822 817 803.5 C821.57892266 807.7556873 826.29289769 811.77325717 831.1640625 815.6953125 C834.25587074 818.20793903 837.28450538 820.78632583 840.3125 823.375 C844.74823095 827.15824329 849.26602372 830.80534075 853.875 834.375 C859.61814606 838.82886837 865.12829362 843.50653541 870.59399414 848.29541016 C874.27804232 851.52033739 878.00417473 854.67115676 881.8125 857.75 C886.12573442 861.24136257 890.24614579 864.89667473 894.34106445 868.64013672 C896.84358677 870.86117985 899.40941598 872.94574834 902.03125 875.0234375 C908.56568399 880.35127862 914.55338801 886.15509532 920.5 892.125 C921.32405838 892.95037262 921.32405838 892.95037262 922.1647644 893.79241943 C939.0496626 910.76623248 955.3384333 931.07649953 957 956 C957.0515625 956.64582031 957.103125 957.29164063 957.15625 957.95703125 C958.14772803 980.22397526 945.82187005 998.49895482 931.50854492 1014.29296875 C927.3153104 1018.81798913 922.98527483 1023.19901908 918.625 1027.5625 C917.75617188 1028.44357422 916.88734375 1029.32464844 915.9921875 1030.23242188 C910.71409269 1035.52222844 905.2515204 1040.3796061 899.41943359 1045.05053711 C896.66667826 1047.26857458 894.08141722 1049.58620728 891.5 1052 C887.02316827 1056.12021356 882.39629252 1059.98389506 877.66015625 1063.80078125 C875.14944479 1065.8764502 872.76119159 1068.03338548 870.375 1070.25 C861.47957118 1078.35220587 851.58944612 1085.33675486 841.9375 1092.5 C831.63815766 1100.20679812 821.61979912 1108.32383708 812.15234375 1117.03515625 C810.1634496 1118.8507892 808.12512882 1120.58188386 806.0625 1122.3125 C787.24648525 1138.86152502 770.84149665 1162.3796564 768.76074219 1187.93896484 C766.60913047 1227.299035 782.21124537 1263.46570151 796.06665039 1299.50146484 C805.09761418 1322.99161742 813.45614286 1346.53716826 820.5625 1370.6875 C820.81688843 1371.54763702 821.07127686 1372.40777405 821.33337402 1373.29397583 C825.65436329 1387.97458095 829.55186245 1402.25133815 829.375 1417.6875 C829.38660156 1418.71166016 829.39820312 1419.73582031 829.41015625 1420.79101562 C829.34526705 1437.93257974 822.95026481 1452.73574059 811 1465 C797.53734731 1477.07131595 781.18590747 1483.30941022 764 1488 C763.15050781 1488.23396484 762.30101563 1488.46792969 761.42578125 1488.70898438 C741.46580219 1494.08962866 721.03484781 1497.37104008 700.70166016 1500.98535156 C675.64184769 1505.44148906 650.64869397 1510.17071204 625.72518921 1515.3404541 C623.23682717 1515.85586973 620.74776883 1516.3679372 618.25796509 1516.87634277 C593.81227796 1521.88132788 571.26173761 1527.32984163 552 1544 C550.79150391 1544.91072266 550.79150391 1544.91072266 549.55859375 1545.83984375 C521.22906506 1569.75775118 517.43043459 1612.62540104 511.52398682 1646.57693481 C510.10877001 1654.70690345 508.66568129 1662.83196039 507.22265625 1670.95703125 C507.08150642 1671.75220846 506.9403566 1672.54738567 506.7949295 1673.36665916 C487.28266622 1783.2154502 487.28266622 1783.2154502 455.765625 1805.5859375 C446.02691343 1811.8556309 435.28971165 1814.92128185 424.0625 1817.25 C423.28922363 1817.41322754 422.51594727 1817.57645508 421.71923828 1817.74462891 C419.15292542 1818.24077216 416.58716053 1818.62625653 414 1819 C412.4464254 1819.23931999 412.4464254 1819.23931999 410.86146545 1819.48347473 C399.64737763 1820.75568552 390.69360497 1818.16224676 380.0859375 1814.68359375 C378.27962325 1814.11250476 376.472566 1813.54376128 374.66482544 1812.97720337 C369.87782712 1811.47021532 365.10130111 1809.93235312 360.32620239 1808.38814163 C355.37784426 1806.79417598 350.42004875 1805.23015578 345.46289062 1803.66381836 C337.72312027 1801.21502919 329.98802644 1798.75210573 322.25683594 1796.27636719 C311.22500231 1792.74486173 300.1712162 1789.28749899 289.10421753 1785.86773682 C284.88425339 1784.56290323 280.6668909 1783.24971874 276.44921875 1781.9375 C274.88200534 1781.45049945 273.31478535 1780.96352009 271.74755859 1780.4765625 C268.44513581 1779.45003972 265.14349752 1778.42103357 261.84228516 1777.390625 C205.59435461 1757.42238784 205.59435461 1757.42238784 148.75 1766.6875 C148.13640625 1766.97753906 147.5228125 1767.26757812 146.890625 1767.56640625 C136.17741681 1773.05919519 127.61054864 1782.08532109 119.25 1790.5625 C118.35667969 1791.45646484 117.46335937 1792.35042969 116.54296875 1793.27148438 C112.10208597 1797.74179863 107.80434076 1802.2754612 103.69824219 1807.05444336 C99.9249483 1811.3772408 95.91405381 1815.48694341 91.9609375 1819.64453125 C88.07371429 1823.74937892 84.28467748 1827.91577988 80.58105469 1832.18701172 C78.47353952 1834.60368985 76.30075768 1836.95726063 74.125 1839.3125 C70.00093324 1843.82903837 66.12063135 1848.49133016 62.28125 1853.25 C59.13805742 1857.03905407 55.79841405 1860.63269352 52.46484375 1864.25390625 C50.07292703 1866.91875166 47.80745116 1869.64831825 45.5625 1872.4375 C41.42522163 1877.56333161 37.03659297 1882.39759241 32.55859375 1887.22265625 C30.4704719 1889.48930455 28.43993504 1891.78332891 26.4375 1894.125 C19.02401316 1902.63025925 10.87278538 1910.05128549 2 1917 C0.63101562 1918.11181641 0.63101562 1918.11181641 -0.765625 1919.24609375 C-17.95799982 1932.79800669 -39.62300911 1942.98556398 -62 1941 C-84.56383334 1938.1251647 -103.09381749 1927.97476403 -120 1913 C-120.95132813 1912.15824219 -121.90265625 1911.31648438 -122.8828125 1910.44921875 C-133.21937649 1901.18107729 -143.18981081 1891.57135383 -151.82421875 1880.6796875 C-154.11976385 1877.85249909 -156.53148045 1875.17707343 -159 1872.5 C-163.09351091 1868.05272888 -166.92442499 1863.45282537 -170.71875 1858.75 C-173.86665674 1854.95526311 -177.21132714 1851.35630789 -180.55078125 1847.73046875 C-182.86060582 1845.15540117 -185.03243013 1842.51745637 -187.1875 1839.8125 C-191.69027665 1834.22616747 -196.56366783 1829.0293788 -201.50854492 1823.83325195 C-205.1972782 1819.95297232 -208.77191047 1816.00125485 -212.28076172 1811.95776367 C-215.03380028 1808.82277131 -217.89006528 1805.78725718 -220.75 1802.75 C-227.7404978 1795.32583929 -227.7404978 1795.32583929 -230.859375 1791.75 C-246.82809498 1773.60802227 -267.50795591 1760.43417862 -292 1758 C-309.37543371 1756.90321183 -325.24449531 1761.36603433 -341.625 1766.5625 C-342.53476593 1766.84757416 -343.44453186 1767.13264832 -344.38186646 1767.42636108 C-358.72065574 1771.92009249 -372.98477368 1776.63495709 -387.23828125 1781.390625 C-388.08381813 1781.6727075 -388.92935501 1781.95479 -389.80051422 1782.24542046 C-398.35267812 1785.0997188 -406.90221144 1787.96165073 -415.44549847 1790.84241676 C-431.0707369 1796.10980168 -446.70017082 1801.32936063 -462.4921875 1806.078125 C-463.65777695 1806.42986282 -464.82336639 1806.78160065 -466.02427673 1807.14399719 C-477.87868559 1810.65751532 -489.89512714 1813.49350988 -502 1816 C-502.88349121 1816.19432617 -503.76698242 1816.38865234 -504.67724609 1816.58886719 C-525.52596826 1820.86611463 -548.32416958 1819.81668847 -566.9375 1809.02734375 C-592.56283523 1792.06363331 -599.8097504 1760.49206215 -606.3046875 1732.27734375 C-606.75035065 1730.35294968 -606.75035065 1730.35294968 -607.20501709 1728.38967896 C-610.45158783 1714.28177456 -613.39080053 1700.10969366 -616.31054688 1685.9312439 C-617.27407896 1681.25347569 -618.24584793 1676.57743837 -619.21875 1671.90161133 C-621.97590668 1658.64363591 -624.72419842 1645.38407845 -627.4208374 1632.11364746 C-628.38244345 1627.39181401 -629.35505901 1622.67229116 -630.32995605 1617.95318604 C-630.76814069 1615.81754487 -631.20105958 1613.68081478 -631.62805176 1611.54290771 C-636.55119484 1586.90294766 -643.79081126 1565.00401478 -662 1547 C-662.79148437 1546.19820312 -663.58296875 1545.39640625 -664.3984375 1544.5703125 C-689.00270706 1520.94694405 -724.536148 1517.01610248 -756.66547012 1511.63187408 C-760.52690459 1510.98285896 -764.38674535 1510.32448901 -768.24682617 1509.66748047 C-782.72706242 1507.20680362 -797.21428131 1504.79167199 -811.7109375 1502.4296875 C-814.13029808 1502.03357976 -816.54965052 1501.63742224 -818.96899414 1501.24121094 C-823.36227472 1500.52210658 -827.75731098 1499.81575526 -832.15405273 1499.11816406 C-863.37295771 1494.08456522 -898.18386294 1487.51060131 -922 1465 C-922.71414063 1464.33871094 -923.42828125 1463.67742187 -924.1640625 1462.99609375 C-936.79185131 1450.14890321 -941.81188574 1431.85611885 -942.25 1414.3125 C-941.97386366 1386.39511572 -932.55408004 1359.84702192 -923.5625 1333.75 C-922.89384569 1331.79642681 -922.22655838 1329.84239071 -921.55948257 1327.88827801 C-915.85776715 1311.18625202 -910.05783501 1294.51867775 -904.22302246 1277.86273193 C-899.82464244 1265.30136854 -895.47719331 1252.72375777 -891.23358154 1240.10916138 C-890.63323593 1238.32708052 -890.03037129 1236.54584568 -889.42462158 1234.76559448 C-886.51193033 1226.19533394 -883.75798133 1217.63253407 -881.63671875 1208.828125 C-881.47424149 1208.16404633 -881.31176422 1207.49996765 -881.1443634 1206.81576538 C-877.17222833 1189.43656142 -880.96135707 1172.05756336 -889.89599609 1156.75585938 C-897.11699019 1145.2712531 -906.6655175 1135.59494151 -916.9140625 1126.8046875 C-919.25025501 1124.78348724 -921.52964851 1122.70621161 -923.8125 1120.625 C-928.10122488 1116.75405046 -932.52108705 1113.08628106 -937.01171875 1109.453125 C-940.40749512 1106.66548113 -943.73691489 1103.80810885 -947.0625 1100.9375 C-951.78158193 1096.86842761 -956.56503898 1092.91261623 -961.453125 1089.046875 C-966.15960684 1085.26436506 -970.73847966 1081.32870966 -975.33544922 1077.41455078 C-976.950741 1076.04186075 -978.57013635 1074.6742153 -980.19140625 1073.30859375 C-986.61868361 1067.89292598 -992.99693149 1062.42433494 -999.33886719 1056.90893555 C-1002.99924326 1053.72704308 -1006.67718699 1050.56774182 -1010.37353516 1047.42773438 C-1017.76375363 1041.13976482 -1024.95856076 1034.67601098 -1032 1028 C-1032.5347998 1027.49919922 -1033.06959961 1026.99839844 -1033.62060547 1026.48242188 C-1052.12626075 1009.07187446 -1069.5026721 987.03594939 -1070.46875 960.60717773 C-1070.72965252 938.84016196 -1061.6556873 921.11114762 -1046.77490234 905.69482422 C-1038.44606154 897.16532745 -1030.07722453 888.73647442 -1021 881 C-1019.84737594 880.00292812 -1018.69502298 879.00554274 -1017.54296875 878.0078125 C-1011.43698412 872.75413836 -1005.2953348 867.5560327 -999.04296875 862.4765625 C-995.18176494 859.334068 -991.34113728 856.1669665 -987.5 853 C-981.01077626 847.6533947 -974.51504326 842.31513761 -968 837 C-967.40364746 836.51176758 -966.80729492 836.02353516 -966.19287109 835.52050781 C-959.30950812 829.88570707 -952.42258344 824.28447417 -945.3125 818.9375 C-938.9721335 814.10749375 -933.20307417 808.77811002 -927.41015625 803.31298828 C-925.54438234 801.57577705 -923.62266545 799.90925319 -921.6875 798.25 C-901.45752308 780.64399498 -884.13211822 757.2345137 -881 730 C-879.03008864 693.78393728 -893.74565252 659.34999628 -906 626 C-906.6528567 624.22168874 -907.30568901 622.44336853 -907.95849609 620.66503906 C-908.92020094 618.04593605 -909.88201339 615.42687267 -910.8440094 612.80787659 C-951.16468865 503.0241047 -951.16468865 503.0241047 -937.69287109 473.55004883 C-927.79339908 453.30911505 -910.48440071 442.71645101 -889.75 435.5625 C-848.24206155 422.05351191 -803.83347109 416.00062053 -760.94676208 408.27158546 C-758.87155891 407.89743226 -756.79653476 407.52230093 -754.72155762 407.14689636 C-753.36890461 406.90232934 -752.01624355 406.6578068 -750.66357422 406.41333008 C-750.00437107 406.29418715 -749.34516792 406.17504423 -748.66598892 406.05229092 C-744.23781568 405.25339525 -739.8070349 404.47011502 -735.37548828 403.69018555 C-719.56728431 400.87515907 -703.8360477 397.9579072 -689.3125 390.8125 C-688.52560791 390.43085693 -687.73871582 390.04921387 -686.92797852 389.65600586 C-664.05524948 378.21383549 -646.90288955 358.86461596 -638.19841003 334.78227234 C-637.43621862 332.45951238 -636.71836897 330.12891938 -636.0234375 327.78515625 C-635.7661235 326.91910767 -635.50880951 326.05305908 -635.24369812 325.1607666 C-632.47165886 315.5560611 -630.60649101 305.82555566 -628.8125 296 C-628.43652988 293.9894959 -628.05962881 291.9791657 -627.68188477 289.96899414 C-625.49732394 278.29848747 -623.38191758 266.61522157 -621.2578125 254.93359375 C-612.61138043 207.38883399 -612.61138043 207.38883399 -608.625 188.25 C-608.47368622 187.51151825 -608.32237244 186.7730365 -608.16647339 186.01217651 C-602.71640906 159.54285394 -593.80029499 130.67334347 -571 114 C-546.75076573 98.69354693 -519.21764358 98.68121797 -491.87301636 104.64825439 C-480.57794516 107.22511869 -469.64230897 110.66466591 -458.68359375 114.375 C-457.11432859 114.90255267 -455.54491749 115.42967139 -453.97537231 115.95639038 C-450.66924504 117.06664179 -447.36395569 118.17933651 -444.05935669 119.29412842 C-439.05338293 120.98269636 -434.04545464 122.66539972 -429.03686523 124.34619141 C-428.21018121 124.62363882 -427.38349718 124.90108624 -426.53176212 125.18694115 C-419.73041755 127.46915271 -412.92831972 129.74911661 -406.12560177 132.02723122 C-401.81409298 133.47132366 -397.50339736 134.91776028 -393.19433594 136.36914062 C-375.22166007 142.42078047 -357.23618302 148.36491186 -339.0390625 153.7109375 C-338.33215649 153.91910725 -337.62525047 154.12727699 -336.89692307 154.34175491 C-309.5265033 162.3718513 -283.81579617 164.06399786 -257.9375 149.9375 C-249.77575003 145.29222229 -242.82801216 139.40449659 -236 133 C-235.28070312 132.32710937 -234.56140625 131.65421875 -233.8203125 130.9609375 C-230.98535798 128.20158176 -228.36269849 125.28968134 -225.77734375 122.296875 C-221.5141782 117.40899798 -217.06509151 112.70789042 -212.60546875 108 C-206.24074967 101.25313423 -200.19724259 94.24968691 -194.1875 87.1875 C-190.46705784 82.82642868 -186.69379448 78.53234976 -182.8125 74.3125 C-179.66073175 70.88101856 -176.65975619 67.38853491 -173.75 63.75 C-168.87152271 57.6996465 -163.55735983 52.0971113 -158.23046875 46.4453125 C-155.2833834 43.31556005 -152.4252156 40.12226485 -149.6171875 36.8671875 C-146.14185689 32.85460771 -142.56676728 28.93117385 -139 25 C-138.52336914 24.47148437 -138.04673828 23.94296875 -137.55566406 23.3984375 C-131.67185758 16.88192291 -125.85137551 10.52182537 -119 5 C-118.51337891 4.59571777 -118.02675781 4.19143555 -117.52539062 3.77490234 C-80.10099679 -27.28913304 -38.21388124 -31.72375195 0 0 Z " fill="#1EA1F3" transform="translate(1307,290)"/>
<path d="M0 0 C6.33577931 4.18023508 11.91638479 9.2792768 17.50390625 14.390625 C18.65492309 15.43101705 19.80596459 16.47138182 20.95703125 17.51171875 C26.61205759 22.65583709 32.09386919 27.9336293 37.4609375 33.37890625 C39.41436104 35.30244951 41.42432714 37.10521032 43.50390625 38.890625 C50.07049752 44.54337653 56.02302006 50.72198512 61.6328125 57.31640625 C63.76816144 59.6835676 66.06150957 61.8267742 68.37890625 64.015625 C78.69308744 74.21974633 87.49992328 88.09921043 87.81640625 102.890625 C87.61265539 122.57295832 75.6061966 136.14321944 62.50390625 149.390625 C61.47740967 150.43766602 61.47740967 150.43766602 60.43017578 151.50585938 C48.15563416 164.01617673 48.15563416 164.01617673 42.80419922 168.5859375 C38.30505519 172.50530928 34.10433965 176.68084446 29.91015625 180.921875 C29.11919556 181.71662231 28.32823486 182.51136963 27.51330566 183.3302002 C25.00771102 185.84790932 22.50539767 188.36883946 20.00390625 190.890625 C16.70478945 194.21650689 13.40226251 197.53894836 10.09765625 200.859375 C9.35471313 201.61061646 8.61177002 202.36185791 7.84631348 203.13586426 C3.8272786 207.17348374 -0.29029964 211.00736285 -4.60583496 214.72521973 C-7.57417798 217.34046698 -10.3459731 220.135833 -13.12109375 222.953125 C-13.71229004 223.54810791 -14.30348633 224.14309082 -14.91259766 224.75610352 C-16.77625875 226.63182157 -18.63660217 228.51077403 -20.49609375 230.390625 C-34.19346722 244.23796971 -34.19346722 244.23796971 -40.33203125 249.44921875 C-45.96149881 254.49948117 -51.17932217 260.01564059 -56.49609375 265.390625 C-58.95140148 267.87281566 -61.41020222 270.35147142 -63.87109375 272.828125 C-64.41717285 273.38250244 -64.96325195 273.93687988 -65.52587891 274.50805664 C-68.39607973 277.39600682 -71.33069749 280.1484357 -74.4140625 282.80859375 C-78.61524378 286.44369046 -82.53069297 290.31490707 -86.43359375 294.265625 C-87.15796631 294.99378418 -87.88233887 295.72194336 -88.62866211 296.47216797 C-90.92027678 298.77588146 -93.20860027 301.08281974 -95.49609375 303.390625 C-98.51394456 306.43527279 -101.53522791 309.47645467 -104.55859375 312.515625 C-105.57457642 313.54405518 -105.57457642 313.54405518 -106.61108398 314.59326172 C-109.78294257 317.78113388 -112.99009993 320.86233892 -116.40039062 323.79492188 C-121.155428 327.89833873 -125.54775879 332.33565133 -129.96484375 336.796875 C-130.84458862 337.68040649 -131.7243335 338.56393799 -132.6307373 339.47424316 C-135.42163881 342.27727633 -138.20938607 345.08342416 -140.99609375 347.890625 C-144.67008113 351.5916305 -148.34774977 355.28894322 -152.02734375 358.984375 C-153.2730011 360.24247986 -153.2730011 360.24247986 -154.54382324 361.52600098 C-158.72103858 365.7205852 -162.97498881 369.72236517 -167.46203613 373.5814209 C-171.46663092 377.14333048 -175.19538487 380.98974896 -178.96484375 384.796875 C-179.84458862 385.68040649 -180.7243335 386.56393799 -181.6307373 387.47424316 C-184.42163881 390.27727633 -187.20938607 393.08342416 -189.99609375 395.890625 C-193.67008113 399.5916305 -197.34774977 403.28894322 -201.02734375 406.984375 C-202.2730011 408.24247986 -202.2730011 408.24247986 -203.54382324 409.52600098 C-207.09839721 413.09535488 -210.6615361 416.59245726 -214.48242188 419.87695312 C-219.29274375 424.01412261 -223.72113944 428.50972303 -228.18359375 433.015625 C-229.08553467 433.92135254 -229.98747559 434.82708008 -230.91674805 435.76025391 C-233.77897939 438.63462069 -236.63805177 441.5120944 -239.49609375 444.390625 C-243.26383708 448.18537838 -247.0352492 451.97643881 -250.80859375 455.765625 C-251.66090576 456.62623535 -252.51321777 457.4868457 -253.39135742 458.37353516 C-257.63079374 462.63016575 -261.94174269 466.7007118 -266.49658203 470.6159668 C-270.3390099 474.02629747 -273.91499168 477.70891834 -277.52734375 481.359375 C-278.36269653 482.1985144 -279.19804932 483.03765381 -280.05871582 483.90222168 C-282.70696461 486.562594 -285.35193781 489.22618513 -287.99609375 491.890625 C-291.48271976 495.40399773 -294.97274301 498.91394471 -298.46484375 502.421875 C-299.64487976 503.61435852 -299.64487976 503.61435852 -300.84875488 504.83093262 C-304.94044014 508.94053416 -309.11959116 512.85063115 -313.51379395 516.63317871 C-317.12143985 519.83160706 -320.48272004 523.2757566 -323.87109375 526.703125 C-325.02424072 527.8619519 -325.02424072 527.8619519 -326.20068359 529.04418945 C-328.6349514 531.49056682 -331.06593481 533.9401664 -333.49609375 536.390625 C-336.70145553 539.62276188 -339.91023448 542.85145035 -343.12109375 546.078125 C-343.84216309 546.80749268 -344.56323242 547.53686035 -345.30615234 548.28833008 C-349.2584482 552.25942892 -353.31483633 556.01987807 -357.55786133 559.67724609 C-360.76974231 562.51651813 -363.76764491 565.55884652 -366.77734375 568.609375 C-367.43512817 569.27094604 -368.0929126 569.93251709 -368.77062988 570.61413574 C-370.84826649 572.70385235 -372.92260002 574.79679815 -374.99609375 576.890625 C-377.73267525 579.654042 -380.47271638 582.41396222 -383.21484375 585.171875 C-383.82654419 585.79187378 -384.43824463 586.41187256 -385.06848145 587.05065918 C-388.76456478 590.76728884 -392.59401506 594.25287938 -396.55969238 597.67907715 C-399.5402701 600.31355235 -402.33055151 603.12017706 -405.12109375 605.953125 C-405.71229004 606.54810791 -406.30348633 607.14309082 -406.91259766 607.75610352 C-408.77625875 609.63182157 -410.63660217 611.51077403 -412.49609375 613.390625 C-426.551171 627.59958996 -426.551171 627.59958996 -432.76025391 632.86865234 C-435.26294075 635.06299127 -437.55594665 637.4402865 -439.86987305 639.83056641 C-450.48398852 650.78900841 -462.06477191 659.45037539 -474.98876953 667.52636719 C-479.04114457 670.06492835 -482.85407819 672.59174624 -486.4453125 675.7578125 C-493.22862205 681.55823064 -493.22862205 681.55823064 -497.49609375 682.390625 C-503.63615688 681.49799284 -508.91788251 678.03118602 -514.11181641 674.82617188 C-516.40919423 673.44294623 -518.72965563 672.21928161 -521.1328125 671.03125 C-533.22007386 665.05480004 -542.50651612 657.58345841 -551.92578125 647.96484375 C-553.97496141 645.91254934 -556.03105399 644.0056693 -558.24609375 642.140625 C-563.06188912 638.04122894 -567.44173183 633.49567399 -571.86621094 628.98339844 C-574.95030428 625.85694565 -578.07094087 622.84740243 -581.40234375 619.984375 C-586.82522673 615.30838764 -591.7682846 610.1649838 -596.78515625 605.0625 C-600.24193805 601.57008127 -603.70214205 598.15258258 -607.43359375 594.953125 C-613.31019557 589.90273849 -618.64039928 584.28958756 -624.07421875 578.7734375 C-627.72629601 575.08775217 -631.35594514 571.44243388 -635.30859375 568.078125 C-641.99299684 562.34671914 -648.03893235 555.90069787 -654.22363281 549.64257812 C-655.91647363 547.93145193 -657.61246912 546.2234953 -659.30859375 544.515625 C-660.06209106 543.74968018 -660.06209106 543.74968018 -660.83081055 542.96826172 C-663.59861946 540.1819496 -666.44109993 537.53988755 -669.4140625 534.97265625 C-673.45823834 531.47036439 -677.23919833 527.75922696 -680.99609375 523.953125 C-681.67607422 523.26935791 -682.35605469 522.58559082 -683.05664062 521.88110352 C-685.92834518 518.99324727 -688.79397813 516.09939425 -691.66015625 513.20605469 C-693.77002162 511.07796775 -695.8829902 508.95299583 -697.99609375 506.828125 C-698.62966797 506.18625244 -699.26324219 505.54437988 -699.91601562 504.88305664 C-702.97060144 501.81204402 -706.06779679 498.85598301 -709.3527832 496.03173828 C-714.23081185 491.81810142 -718.74668453 487.26489702 -723.2890625 482.6953125 C-724.19811844 481.78484161 -725.10717438 480.87437073 -726.04377747 479.93630981 C-728.43927677 477.53703041 -730.83175975 475.134766 -733.22357178 472.73181152 C-735.6530822 470.29204314 -738.0854444 467.85512155 -740.51757812 465.41796875 C-744.84139545 461.08454414 -749.16242457 456.74834993 -753.48236084 452.41105652 C-755.1348914 450.75302887 -756.78904004 449.09667074 -758.44506836 447.44213867 C-770.44879905 435.43555029 -779.43084204 423.13934862 -779.80859375 405.703125 C-779.64901476 390.49524736 -771.3714296 377.87864079 -761.12109375 367.15625 C-759.10260312 365.02962594 -757.18221652 362.8817591 -755.2734375 360.66015625 C-751.07796543 355.83825718 -746.58727335 351.33522233 -742.05859375 346.828125 C-741.25099609 346.01666016 -740.44339844 345.20519531 -739.61132812 344.36914062 C-735.33942468 340.10412179 -730.98573085 336.02160265 -726.40991211 332.08618164 C-723.12098524 329.17234096 -720.07174151 326.02610714 -716.99609375 322.890625 C-702.27538063 308.05947485 -686.1177425 293.63324299 -664.24609375 293.078125 C-641.1801282 293.48920161 -625.68302039 306.82122811 -610.32885742 322.54272461 C-607.16329146 325.77767065 -603.97131857 328.89902977 -600.5390625 331.8515625 C-595.3596478 336.31016008 -590.63703317 341.20158103 -585.8515625 346.07421875 C-585.14644531 346.78707031 -584.44132812 347.49992187 -583.71484375 348.234375 C-582.78575195 349.18086914 -582.78575195 349.18086914 -581.83789062 350.14648438 C-579.93882698 351.96635438 -578.0112714 353.66491178 -576.01123047 355.36889648 C-570.6639331 360.01965041 -565.73748297 365.08576064 -560.77013016 370.13311958 C-558.99767526 371.93258338 -557.22056659 373.72732817 -555.44198608 375.52073669 C-550.3905115 380.61459708 -545.34185221 385.71114392 -540.30957031 390.82397461 C-537.21629244 393.96608144 -534.11307203 397.09807316 -531.00336838 400.22392082 C-529.83005104 401.4070547 -528.66037625 402.59381373 -527.49464798 403.78442574 C-516.10969872 415.92116833 -516.10969872 415.92116833 -500.87109375 421.015625 C-483.99223737 419.85889219 -470.4024059 400.40525086 -459.24609375 389.140625 C-456.45222881 386.31990827 -453.65487513 383.50271606 -450.85546875 380.6875 C-449.92392975 379.74351349 -449.92392975 379.74351349 -448.97357178 378.78045654 C-445.99447035 375.78499026 -442.9753126 372.90588456 -439.76464844 370.15917969 C-434.75025246 365.82575666 -430.11422395 361.12101747 -425.44978333 356.41947937 C-423.80275492 354.75949441 -422.15245423 353.10282265 -420.50134277 351.44689941 C-416.99674736 347.93096849 -413.4961182 344.41110547 -409.99609375 340.890625 C-405.93490367 336.80569915 -401.87203081 332.72247607 -397.80488586 328.64347839 C-396.19216792 327.02435729 -394.58253157 325.40221716 -392.97302246 323.77990723 C-388.2838446 319.06757906 -383.54743648 314.48787123 -378.49353027 310.16320801 C-374.26769711 306.41308129 -370.34613279 302.33997658 -366.37109375 298.328125 C-365.41550005 297.36811125 -364.45960191 296.40840047 -363.50341797 295.44897461 C-360.49811825 292.43236131 -357.49679763 289.41180904 -354.49609375 286.390625 C-351.01316364 282.88392349 -347.52852873 279.37895034 -344.03961182 275.87820435 C-342.65956242 274.4917716 -341.28261631 273.10225202 -339.90576172 271.71264648 C-335.56798379 267.35809985 -331.16902272 263.18022077 -326.50708008 259.17675781 C-322.50823512 255.62503392 -318.78897851 251.78359873 -315.02734375 247.984375 C-314.14759888 247.10084351 -313.267854 246.21731201 -312.3614502 245.30700684 C-309.57054869 242.50397367 -306.78280143 239.69782584 -303.99609375 236.890625 C-300.32210637 233.1896195 -296.64443773 229.49230678 -292.96484375 225.796875 C-292.13440552 224.95813843 -291.30396729 224.11940186 -290.44836426 223.25524902 C-286.25814549 219.04760731 -281.99116088 215.03061849 -277.48986816 211.1595459 C-273.72567982 207.81987448 -270.22129448 204.21671014 -266.68359375 200.640625 C-265.46385864 199.41520996 -265.46385864 199.41520996 -264.21948242 198.16503906 C-261.64256078 195.57599829 -259.0689175 192.98373763 -256.49609375 190.390625 C-253.10322222 186.97099781 -249.70694718 183.55480351 -246.30859375 180.140625 C-245.54377686 179.36750977 -244.77895996 178.59439453 -243.9909668 177.79785156 C-239.9616028 173.75036317 -235.83937607 169.90879601 -231.51293945 166.18261719 C-227.74291158 162.8329011 -224.22909303 159.2245933 -220.68359375 155.640625 C-219.46385864 154.41520996 -219.46385864 154.41520996 -218.21948242 153.16503906 C-215.64256078 150.57599829 -213.0689175 147.98373763 -210.49609375 145.390625 C-207.10322222 141.97099781 -203.70694718 138.55480351 -200.30859375 135.140625 C-199.54377686 134.36750977 -198.77895996 133.59439453 -197.9909668 132.79785156 C-193.95726887 128.74600974 -189.83068825 124.89937658 -185.49951172 121.16918945 C-181.80967465 117.89348106 -178.37057939 114.36634927 -174.90234375 110.859375 C-173.71590271 109.66725403 -173.71590271 109.66725403 -172.50549316 108.4510498 C-169.99989852 105.93334068 -167.49758517 103.41241054 -164.99609375 100.890625 C-161.69697695 97.56474311 -158.39445001 94.24230164 -155.08984375 90.921875 C-154.34690063 90.17063354 -153.60395752 89.41939209 -152.83850098 88.64538574 C-149.48707579 85.27846307 -146.11009254 82.00504629 -142.50976562 78.90429688 C-138.01420384 75.03058205 -133.85530042 70.85759511 -129.68359375 66.640625 C-128.87043701 65.82368164 -128.05728027 65.00673828 -127.21948242 64.16503906 C-124.64256078 61.57599829 -122.0689175 58.98373763 -119.49609375 56.390625 C-116.10322222 52.97099781 -112.70694718 49.55480351 -109.30859375 46.140625 C-108.54377686 45.36750977 -107.77895996 44.59439453 -106.9909668 43.79785156 C-102.88969996 39.6781369 -98.69416516 35.75583908 -94.28918457 31.96331787 C-91.84915185 29.82320203 -89.58409397 27.53925259 -87.32421875 25.2109375 C-86.4115625 24.28152344 -85.49890625 23.35210938 -84.55859375 22.39453125 C-82.69340406 20.48854053 -80.83582864 18.57578914 -78.98046875 16.66015625 C-70.34929922 7.89564 -61.19861961 0.1334071 -49.99609375 -5.109375 C-49.320625 -5.44195313 -48.64515625 -5.77453125 -47.94921875 -6.1171875 C-32.03432233 -13.82400742 -14.40673774 -8.95668153 0 0 Z " fill="#FEFEFE" transform="translate(1631.49609375,931.609375)"/>
</svg>
